<svg width="137" height="73" viewBox="0 0 137 73" fill="none" xmlns="http://www.w3.org/2000/svg">
<g clip-path="url(#clip0_2681_2051)">
<path d="M134.926 60.4451C134.904 56.7543 134.892 53.0532 134.871 49.3624C131.919 48.9534 127.466 48.1756 124.523 47.7764" stroke="black" stroke-width="3" stroke-miterlimit="10" stroke-linecap="round"/>
<path d="M134.926 60.4451C134.904 56.7543 134.892 53.0532 134.871 49.3624C131.919 48.9534 127.466 48.1756 124.523 47.7764" stroke="#00999E" stroke-width="3" stroke-miterlimit="10" stroke-linecap="round"/>
<path d="M133.873 50.1801C118.382 68.183 95.4606 74.6358 72.2369 63.9104C65.8634 60.9646 55.7613 54.4799 51.2034 48.8031C46.3344 42.7247 43.9902 34.9663 43.4157 27.5393C42.7989 19.6632 44.1388 11.6434 48.5944 5.96867C49.5127 4.80298 50.6329 3.70175 52.1171 3.47085C55.4937 2.93778 58.484 6.90705 59.8714 10.4302C64.4543 22.1086 62.1619 35.5067 54.2601 43.1869C49.3202 47.9846 42.3639 50.3968 35.1556 50.195C28.5682 50.0161 22.2844 47.4179 17.168 43.257C12.4201 39.3962 5.52201 32.6533 1.62258 23.6371" stroke="black" stroke-width="3" stroke-miterlimit="10" stroke-linecap="round"/>
<path d="M133.873 50.1801C118.382 68.183 95.4606 74.6358 72.2369 63.9104C65.8634 60.9646 55.7613 54.4799 51.2034 48.8031C46.3344 42.7247 43.9902 34.9663 43.4157 27.5393C42.7989 19.6632 44.1388 11.6434 48.5944 5.96867C49.5127 4.80298 50.6329 3.70175 52.1171 3.47085C55.4937 2.93778 58.484 6.90705 59.8714 10.4302C64.4543 22.1086 62.1619 35.5067 54.2601 43.1869C49.3202 47.9846 42.3639 50.3968 35.1556 50.195C28.5682 50.0161 22.2844 47.4179 17.168 43.257C12.4201 39.3962 5.52201 32.6533 1.62258 23.6371" stroke="#00999E" stroke-width="3" stroke-miterlimit="10" stroke-linecap="round"/>
</g>
<defs>
<clipPath id="clip0_2681_2051">
<rect width="134.51" height="68.86" fill="white" transform="translate(0.078125 3.8623) rotate(-1.57591)"/>
</clipPath>
</defs>
</svg>
